<mxfile host="app.diagrams.net" modified="2023-11-26T01:26:49.224Z" agent="Mozilla/5.0 (Windows NT 10.0; Win64; x64) AppleWebKit/537.36 (KHTML, like Gecko) Chrome/119.0.0.0 Safari/537.36" version="22.1.4" etag="32rQpSAHol_tNK6tbFib" type="github">
  <diagram name="PÃ¡gina-1" id="H4FxdSaLS85R7XVQe_jU">
    <mxGraphModel>
      <root>
        <mxCell id="0" />
        <mxCell id="1" parent="0" />
      </root>
    </mxGraphModel>
  </diagram>
</mxfile>
